<svg width="43" height="46" viewBox="0 0 43 46" fill="none" xmlns="http://www.w3.org/2000/svg">
<path d="M41.1302 39.8807C41.6938 40.4795 42.0104 41.2917 42.0104 42.1385C42.0104 42.9853 41.6938 43.7975 41.1302 44.3963C40.5666 44.9951 39.8022 45.3315 39.0052 45.3315C38.2082 45.3315 37.4438 44.9951 36.8802 44.3963L21.0077 27.5265L5.1302 44.391C4.56662 44.9898 3.80223 45.3262 3.0052 45.3262C2.20817 45.3262 1.44379 44.9898 0.880204 44.391C0.316619 43.7922 8.39807e-09 42.98 0 42.1332C-8.39807e-09 41.2863 0.316619 40.4742 0.880204 39.8754L16.7577 23.0108L0.885203 6.141C0.321618 5.54219 0.00500011 4.73003 0.00500011 3.88319C0.00500012 3.03634 0.321618 2.22418 0.885203 1.62537C1.44879 1.02656 2.21317 0.690156 3.0102 0.690156C3.80723 0.690156 4.57162 1.02656 5.1352 1.62537L21.0077 18.4952L36.8852 1.62272C37.4488 1.02391 38.2132 0.6875 39.0102 0.6875C39.8072 0.6875 40.5716 1.02391 41.1352 1.62272C41.6988 2.22153 42.0154 3.03368 42.0154 3.88053C42.0154 4.72737 41.6988 5.53953 41.1352 6.13834L25.2577 23.0108L41.1302 39.8807Z" fill="#61537B"/>
</svg>
