<svg width="24" height="24" viewBox="0 0 24 24" fill="none" xmlns="http://www.w3.org/2000/svg">
<g clip-path="url(#clip0_110_689)">
<path fill-rule="evenodd" clip-rule="evenodd" d="M6.43982 14.0805C6.1582 13.7988 6 13.4168 6 13.0185C6 12.6201 6.1582 12.2381 6.43982 11.9564L14.9376 3.4586C15.0762 3.31512 15.242 3.20068 15.4252 3.12196C15.6085 3.04323 15.8056 3.00179 16.0051 3.00006C16.2045 2.99832 16.4023 3.03633 16.587 3.11186C16.7716 3.18739 16.9393 3.29893 17.0803 3.43998C17.2214 3.58102 17.3329 3.74874 17.4085 3.93335C17.484 4.11797 17.522 4.31577 17.5203 4.51523C17.5185 4.71469 17.4771 4.91181 17.3984 5.09508C17.3196 5.27835 17.2052 5.44411 17.0617 5.58268L9.62594 13.0185L17.0617 20.4542C17.3354 20.7376 17.4868 21.117 17.4833 21.5109C17.4799 21.9047 17.3219 22.2815 17.0434 22.56C16.7649 22.8385 16.3881 22.9965 15.9943 22.9999C15.6004 23.0034 15.221 22.852 14.9376 22.5783L6.43982 14.0805Z" fill="black"/>
</g>
<defs>
<clipPath id="clip0_110_689">
<rect width="24" height="24" fill="white"/>
</clipPath>
</defs>
</svg>
