<svg width="48" height="48" viewBox="0 0 48 48" fill="none" xmlns="http://www.w3.org/2000/svg">
<path d="M24 6C14.0745 6 6 14.0745 6 24C6 33.9255 14.0745 42 24 42C33.9255 42 42 33.9255 42 24C42 14.0745 33.9255 6 24 6ZM24 9C32.3025 9 39 15.6975 39 24C39 32.3025 32.3025 39 24 39C15.6975 39 9 32.3025 9 24C9 15.6975 15.6975 9 24 9ZM17.25 18C16.6533 18 16.081 18.2371 15.659 18.659C15.2371 19.081 15 19.6533 15 20.25C15 20.8467 15.2371 21.419 15.659 21.841C16.081 22.2629 16.6533 22.5 17.25 22.5C17.8467 22.5 18.419 22.2629 18.841 21.841C19.2629 21.419 19.5 20.8467 19.5 20.25C19.5 19.6533 19.2629 19.081 18.841 18.659C18.419 18.2371 17.8467 18 17.25 18ZM30.75 18C30.1533 18 29.581 18.2371 29.159 18.659C28.7371 19.081 28.5 19.6533 28.5 20.25C28.5 20.8467 28.7371 21.419 29.159 21.841C29.581 22.2629 30.1533 22.5 30.75 22.5C31.3467 22.5 31.919 22.2629 32.341 21.841C32.7629 21.419 33 20.8467 33 20.25C33 19.6533 32.7629 19.081 32.341 18.659C31.919 18.2371 31.3467 18 30.75 18ZM16.218 28.5L13.641 30C15.7155 33.5805 19.5705 36 24 36C28.4295 36 32.2845 33.5805 34.359 30L31.782 28.5C30.9958 29.8687 29.8622 31.0056 28.4957 31.7958C27.1293 32.586 25.5785 33.0014 24 33C22.4215 33.0014 20.8707 32.586 19.5043 31.7958C18.1378 31.0056 17.0042 29.8687 16.218 28.5Z" fill="black"/>
</svg>
