<svg width="48" height="48" viewBox="0 0 48 48" fill="none" xmlns="http://www.w3.org/2000/svg">
<path d="M43.4201 17.4199C45.9201 14.9199 44.7801 11.9999 43.4201 10.5799L37.4201 4.57986C34.9001 2.07986 32.0001 3.21986 30.5801 4.57986L27.1801 7.99986H22.0001C18.2001 7.99986 16.0001 9.99986 14.8801 12.2999L6.0001 21.1799V29.1799L4.5801 30.5799C2.0801 33.0999 3.2201 35.9999 4.5801 37.4199L10.5801 43.4199C11.6601 44.4999 12.8201 44.8999 13.9201 44.8999C15.3401 44.8999 16.6401 44.1999 17.4201 43.4199L22.8201 37.9999H30.0001C33.4001 37.9999 35.1201 35.8799 35.7401 33.7999C38.0001 33.1999 39.2401 31.4799 39.7401 29.7999C42.8401 28.9999 44.0001 26.0599 44.0001 23.9999V17.9999H42.8201L43.4201 17.4199ZM40.0001 23.9999C40.0001 24.8999 39.6201 25.9999 38.0001 25.9999H36.0001V27.9999C36.0001 28.8999 35.6201 29.9999 34.0001 29.9999H32.0001V31.9999C32.0001 32.8999 31.6201 33.9999 30.0001 33.9999H21.1801L14.6201 40.5599C14.0001 41.1399 13.6401 40.7999 13.4201 40.5799L7.4401 34.6199C6.8601 33.9999 7.2001 33.6399 7.4201 33.4199L10.0001 30.8199V22.8199L14.0001 18.8199V21.9999C14.0001 24.4199 15.6001 27.9999 20.0001 27.9999C24.4001 27.9999 26.0001 24.4199 26.0001 21.9999H40.0001V23.9999ZM40.5801 14.5799L37.1801 17.9999H22.0001V21.9999C22.0001 22.8999 21.6201 23.9999 20.0001 23.9999C18.3801 23.9999 18.0001 22.8999 18.0001 21.9999V15.9999C18.0001 15.0799 18.3401 11.9999 22.0001 11.9999H28.8201L33.3801 7.43986C34.0001 6.85986 34.3601 7.19986 34.5801 7.41986L40.5601 13.3799C41.1401 13.9999 40.8001 14.3599 40.5801 14.5799Z" fill="#62547D"/>
<path d="M43.4201 17.4199C45.9201 14.9199 44.7801 11.9999 43.4201 10.5799L37.4201 4.57986C34.9001 2.07986 32.0001 3.21986 30.5801 4.57986L27.1801 7.99986H22.0001C18.2001 7.99986 16.0001 9.99986 14.8801 12.2999L6.0001 21.1799V29.1799L4.5801 30.5799C2.0801 33.0999 3.2201 35.9999 4.5801 37.4199L10.5801 43.4199C11.6601 44.4999 12.8201 44.8999 13.9201 44.8999C15.3401 44.8999 16.6401 44.1999 17.4201 43.4199L22.8201 37.9999H30.0001C33.4001 37.9999 35.1201 35.8799 35.7401 33.7999C38.0001 33.1999 39.2401 31.4799 39.7401 29.7999C42.8401 28.9999 44.0001 26.0599 44.0001 23.9999V17.9999H42.8201L43.4201 17.4199ZM40.0001 23.9999C40.0001 24.8999 39.6201 25.9999 38.0001 25.9999H36.0001V27.9999C36.0001 28.8999 35.6201 29.9999 34.0001 29.9999H32.0001V31.9999C32.0001 32.8999 31.6201 33.9999 30.0001 33.9999H21.1801L14.6201 40.5599C14.0001 41.1399 13.6401 40.7999 13.4201 40.5799L7.4401 34.6199C6.8601 33.9999 7.2001 33.6399 7.4201 33.4199L10.0001 30.8199V22.8199L14.0001 18.8199V21.9999C14.0001 24.4199 15.6001 27.9999 20.0001 27.9999C24.4001 27.9999 26.0001 24.4199 26.0001 21.9999H40.0001V23.9999ZM40.5801 14.5799L37.1801 17.9999H22.0001V21.9999C22.0001 22.8999 21.6201 23.9999 20.0001 23.9999C18.3801 23.9999 18.0001 22.8999 18.0001 21.9999V15.9999C18.0001 15.0799 18.3401 11.9999 22.0001 11.9999H28.8201L33.3801 7.43986C34.0001 6.85986 34.3601 7.19986 34.5801 7.41986L40.5601 13.3799C41.1401 13.9999 40.8001 14.3599 40.5801 14.5799Z" fill="black" fill-opacity="0.8"/>
</svg>
