<svg width="48" height="48" viewBox="0 0 48 48" fill="none" xmlns="http://www.w3.org/2000/svg">
<path fill-rule="evenodd" clip-rule="evenodd" d="M12 21.6001C13.2731 21.6001 14.494 21.0944 15.3942 20.1942C16.2943 19.294 16.8 18.0731 16.8 16.8001C16.8 15.5271 16.2943 14.3062 15.3942 13.406C14.494 12.5058 13.2731 12.0001 12 12.0001C10.727 12.0001 9.50611 12.5058 8.60594 13.406C7.70576 14.3062 7.20005 15.5271 7.20005 16.8001C7.20005 18.0731 7.70576 19.294 8.60594 20.1942C9.50611 21.0944 10.727 21.6001 12 21.6001ZM12 24.0001C12.9456 24.0001 13.8818 23.8139 14.7554 23.452C15.6289 23.0902 16.4226 22.5598 17.0912 21.8913C17.7598 21.2227 18.2901 20.429 18.652 19.5554C19.0138 18.6819 19.2 17.7456 19.2 16.8001C19.2 15.8546 19.0138 14.9183 18.652 14.0448C18.2901 13.1712 17.7598 12.3775 17.0912 11.7089C16.4226 11.0403 15.6289 10.51 14.7554 10.1482C13.8818 9.78633 12.9456 9.6001 12 9.6001C10.0905 9.6001 8.25914 10.3587 6.90888 11.7089C5.55862 13.0592 4.80005 14.8905 4.80005 16.8001C4.80005 18.7097 5.55862 20.541 6.90888 21.8913C8.25914 23.2415 10.0905 24.0001 12 24.0001Z" fill="black"/>
<path fill-rule="evenodd" clip-rule="evenodd" d="M9.2497 21.3504C9.36145 21.4618 9.45011 21.5943 9.51061 21.7401C9.5711 21.8858 9.60224 22.0421 9.60224 22.2C9.60224 22.3578 9.5711 22.5141 9.51061 22.6599C9.45011 22.8057 9.36145 22.9381 9.2497 23.0496L8.4385 23.8584C6.87738 25.4199 6.0003 27.5375 6.0001 29.7456V34.2C6.0001 34.5182 5.87367 34.8235 5.64863 35.0485C5.42358 35.2735 5.11836 35.4 4.8001 35.4C4.48184 35.4 4.17661 35.2735 3.95157 35.0485C3.72653 34.8235 3.6001 34.5182 3.6001 34.2V29.7456C3.60044 26.9011 4.73046 24.1731 6.7417 22.1616L7.5505 21.3504C7.66197 21.2386 7.79439 21.15 7.94018 21.0895C8.08596 21.029 8.24226 20.9978 8.4001 20.9978C8.55794 20.9978 8.71423 21.029 8.86002 21.0895C9.00581 21.15 9.13823 21.2386 9.2497 21.3504ZM37.5505 20.6304C37.4387 20.7418 37.3501 20.8743 37.2896 21.0201C37.2291 21.1658 37.198 21.3221 37.198 21.48C37.198 21.6378 37.2291 21.7941 37.2896 21.9399C37.3501 22.0857 37.4387 22.2181 37.5505 22.3296L38.3617 23.1384C39.1348 23.9115 39.748 24.8293 40.1664 25.8395C40.5848 26.8496 40.8001 27.9322 40.8001 29.0256V34.2C40.8001 34.5182 40.9265 34.8235 41.1516 35.0485C41.3766 35.2735 41.6818 35.4 42.0001 35.4C42.3184 35.4 42.6236 35.2735 42.8486 35.0485C43.0737 34.8235 43.2001 34.5182 43.2001 34.2V29.0256C43.1998 26.1811 42.0697 23.4531 40.0585 21.4416L39.2497 20.6304C39.1382 20.5186 39.0058 20.43 38.86 20.3695C38.7142 20.309 38.5579 20.2778 38.4001 20.2778C38.2423 20.2778 38.086 20.309 37.9402 20.3695C37.7944 20.43 37.662 20.5186 37.5505 20.6304Z" fill="black"/>
<path fill-rule="evenodd" clip-rule="evenodd" d="M33.6001 21.6001C32.3271 21.6001 31.1062 21.0944 30.206 20.1942C29.3059 19.294 28.8001 18.0731 28.8001 16.8001C28.8001 15.5271 29.3059 14.3062 30.206 13.406C31.1062 12.5058 32.3271 12.0001 33.6001 12.0001C34.8732 12.0001 36.0941 12.5058 36.9943 13.406C37.8944 14.3062 38.4001 15.5271 38.4001 16.8001C38.4001 18.0731 37.8944 19.294 36.9943 20.1942C36.0941 21.0944 34.8732 21.6001 33.6001 21.6001ZM33.6001 24.0001C32.6546 24.0001 31.7184 23.8139 30.8448 23.452C29.9713 23.0902 29.1776 22.5598 28.509 21.8913C27.8404 21.2227 27.31 20.429 26.9482 19.5554C26.5864 18.6819 26.4001 17.7456 26.4001 16.8001C26.4001 15.8546 26.5864 14.9183 26.9482 14.0448C27.31 13.1712 27.8404 12.3775 28.509 11.7089C29.1776 11.0403 29.9713 10.51 30.8448 10.1482C31.7184 9.78633 32.6546 9.6001 33.6001 9.6001C35.5097 9.6001 37.3411 10.3587 38.6913 11.7089C40.0416 13.0592 40.8001 14.8905 40.8001 16.8001C40.8001 18.7097 40.0416 20.541 38.6913 21.8913C37.3411 23.2415 35.5097 24.0001 33.6001 24.0001ZM22.8001 31.8001C21.2088 31.8001 19.6827 32.4322 18.5575 33.5575C17.4323 34.6827 16.8001 36.2088 16.8001 37.8001V40.9201C16.8001 41.2384 16.6737 41.5436 16.4487 41.7686C16.2236 41.9937 15.9184 42.1201 15.6001 42.1201C15.2819 42.1201 14.9767 41.9937 14.7516 41.7686C14.5266 41.5436 14.4001 41.2384 14.4001 40.9201V37.8001C14.4001 35.5723 15.2851 33.4357 16.8604 31.8604C18.4358 30.2851 20.5723 29.4001 22.8001 29.4001C25.028 29.4001 27.1645 30.2851 28.7398 31.8604C30.3151 33.4357 31.2001 35.5723 31.2001 37.8001V40.9201C31.2001 41.2384 31.0737 41.5436 30.8487 41.7686C30.6236 41.9937 30.3184 42.1201 30.0001 42.1201C29.6819 42.1201 29.3767 41.9937 29.1516 41.7686C28.9266 41.5436 28.8001 41.2384 28.8001 40.9201V37.8001C28.8001 37.0122 28.645 36.2319 28.3434 35.504C28.0419 34.776 27.5999 34.1146 27.0428 33.5575C26.4856 33.0003 25.8242 32.5583 25.0962 32.2568C24.3683 31.9553 23.5881 31.8001 22.8001 31.8001Z" fill="black"/>
<path fill-rule="evenodd" clip-rule="evenodd" d="M22.8001 28.2002C24.0731 28.2002 25.294 27.6945 26.1942 26.7943C27.0944 25.8941 27.6001 24.6732 27.6001 23.4002C27.6001 22.1272 27.0944 20.9063 26.1942 20.0061C25.294 19.1059 24.0731 18.6002 22.8001 18.6002C21.5271 18.6002 20.3062 19.1059 19.406 20.0061C18.5058 20.9063 18.0001 22.1272 18.0001 23.4002C18.0001 24.6732 18.5058 25.8941 19.406 26.7943C20.3062 27.6945 21.5271 28.2002 22.8001 28.2002ZM22.8001 30.6002C24.7097 30.6002 26.541 29.8416 27.8913 28.4914C29.2415 27.1411 30.0001 25.3098 30.0001 23.4002C30.0001 21.4906 29.2415 19.6593 27.8913 18.309C26.541 16.9588 24.7097 16.2002 22.8001 16.2002C20.8905 16.2002 19.0592 16.9588 17.7089 18.309C16.3587 19.6593 15.6001 21.4906 15.6001 23.4002C15.6001 25.3098 16.3587 27.1411 17.7089 28.4914C19.0592 29.8416 20.8905 30.6002 22.8001 30.6002Z" fill="black"/>
</svg>
