<svg width="48" height="48" viewBox="0 0 48 48" fill="none" xmlns="http://www.w3.org/2000/svg">
<path d="M24 6V40.5M24 40.5C21.056 40.5 18.236 41.03 15.63 42M24 40.5C26.944 40.5 29.764 41.03 32.37 42M37.5 9.94C33.0277 9.30949 28.5165 8.99538 24 9C19.418 9 14.91 9.32 10.5 9.94M37.5 9.94C39.52 10.2267 41.52 10.5733 43.5 10.98M37.5 9.94L42.74 31.392C42.984 32.39 42.528 33.448 41.562 33.796C40.2587 34.2632 38.8845 34.5014 37.5 34.5C36.1155 34.5014 34.7413 34.2632 33.438 33.796C32.472 33.448 32.016 32.39 32.258 31.392L37.5 9.94ZM10.5 9.94C8.48 10.2267 6.48 10.5733 4.5 10.98M10.5 9.94L15.74 31.392C15.984 32.39 15.528 33.448 14.562 33.796C13.2587 34.2632 11.8845 34.5014 10.5 34.5C9.11553 34.5014 7.74125 34.2632 6.438 33.796C5.472 33.448 5.016 32.39 5.258 31.392L10.5 9.94Z" stroke="black" stroke-width="3" stroke-linecap="round" stroke-linejoin="round"/>
</svg>
