<svg width="48" height="48" viewBox="0 0 48 48" fill="none" xmlns="http://www.w3.org/2000/svg">
<path d="M21.7248 13.3902C20.6102 13.3902 19.5723 13.5991 18.6109 14.0171C17.6496 14.4351 16.7997 15.0063 16.0613 15.7308C15.3229 16.4552 14.7447 17.3121 14.3268 18.3013C13.9088 19.2905 13.6998 20.3284 13.6998 21.4151C13.6998 22.5297 13.9088 23.5676 14.3268 24.529C14.7447 25.4903 15.316 26.3402 16.0404 27.0786C16.7649 27.817 17.6148 28.3952 18.59 28.8131C19.5653 29.2311 20.6102 29.4401 21.7248 29.4401C22.8254 29.4401 23.8634 29.2311 24.8386 28.8131C25.8139 28.3952 26.6637 27.8239 27.3882 27.0995C28.1127 26.375 28.6909 25.5251 29.1228 24.5499C29.5547 23.5746 29.7637 22.5297 29.7497 21.4151C29.7497 20.5235 29.5965 19.6318 29.29 18.7401H32.0903C32.2018 19.186 32.2854 19.6318 32.3411 20.0776C32.3969 20.5235 32.4247 20.9693 32.4247 21.4151C32.4247 22.8919 32.1461 24.2782 31.5888 25.5739C31.0315 26.8696 30.2652 27.9981 29.29 28.9594C28.3147 29.9207 27.1792 30.687 25.8835 31.2582C24.5878 31.8294 23.2016 32.1151 21.7248 32.1151C20.248 32.1151 18.8617 31.8364 17.566 31.2791C16.2703 30.7218 15.1418 29.9556 14.1805 28.9803C13.2192 28.0051 12.4529 26.8696 11.8817 25.5739C11.3104 24.2782 11.0318 22.8919 11.0457 21.4151C11.0457 19.9383 11.3244 18.552 11.8817 17.2563C12.439 15.9607 13.1983 14.8321 14.1596 13.8708C15.1209 12.9095 16.2564 12.1432 17.566 11.572C18.8756 11.0008 20.2619 10.7152 21.7248 10.7152C22.1706 10.7152 22.6164 10.743 23.0623 10.7988C23.5081 10.8545 23.9539 10.9381 24.3998 11.0495V13.8499C23.5081 13.5434 22.6164 13.3902 21.7248 13.3902ZM39.8227 16.6294C40.2407 18.2037 40.4497 19.799 40.4497 21.4151C40.4497 23.1288 40.2268 24.7797 39.7809 26.368C39.3351 27.9563 38.7081 29.447 37.9001 30.8403C37.092 32.2335 36.1098 33.5013 34.9534 34.6437C33.797 35.7862 32.5362 36.7614 31.1708 37.5695C29.8055 38.3776 28.3147 39.0115 26.6986 39.4713C25.0824 39.931 23.4245 40.1539 21.7248 40.14C20.0111 40.14 18.3601 39.9171 16.7719 39.4713C15.1836 39.0254 13.6929 38.3985 12.2996 37.5904C10.9064 36.7823 9.63858 35.8001 8.49614 34.6437C7.3537 33.4874 6.37844 32.2265 5.57038 30.8612C4.76231 29.4958 4.12839 28.0051 3.66863 26.3889C3.20887 24.7728 2.98595 23.1148 2.99988 21.4151C2.99988 19.7015 3.2228 18.0505 3.66863 16.4622C4.11446 14.8739 4.74141 13.3832 5.54948 11.99C6.35755 10.5968 7.33977 9.32892 8.49614 8.18648C9.65251 7.04404 10.9134 6.06878 12.2787 5.26071C13.6441 4.45264 15.1348 3.81873 16.751 3.35897C18.3671 2.8992 20.025 2.67629 21.7248 2.69022C23.3409 2.69022 24.9362 2.8992 26.5105 3.31717L24.3998 5.4279V5.59509C23.9539 5.52543 23.5081 5.4697 23.0623 5.4279C22.6164 5.3861 22.1706 5.3652 21.7248 5.3652C20.248 5.3652 18.8269 5.55329 17.4615 5.92946C16.0962 6.30563 14.8214 6.84899 13.6371 7.55953C12.4529 8.27007 11.3662 9.106 10.377 10.0673C9.3878 11.0286 8.55187 12.1084 7.86919 13.3066C7.18651 14.5047 6.65012 15.7865 6.26002 17.1519C5.86992 18.5172 5.67487 19.9383 5.67487 21.4151C5.67487 22.8919 5.86295 24.313 6.23912 25.6784C6.61529 27.0437 7.15865 28.3185 7.86919 29.5028C8.57973 30.687 9.41567 31.7737 10.377 32.7629C11.3383 33.7521 12.4181 34.588 13.6162 35.2707C14.8144 35.9534 16.0962 36.4898 17.4615 36.8799C18.8269 37.27 20.248 37.465 21.7248 37.465C23.2016 37.465 24.6227 37.2769 25.988 36.9008C27.3534 36.5246 28.6282 35.9812 29.8124 35.2707C30.9967 34.5602 32.0834 33.7242 33.0726 32.7629C34.0618 31.8016 34.8977 30.7218 35.5804 29.5237C36.263 28.3255 36.7994 27.0437 37.1895 25.6784C37.5796 24.313 37.7747 22.8919 37.7747 21.4151C37.7747 20.9693 37.7538 20.5235 37.712 20.0776C37.6702 19.6318 37.6145 19.186 37.5448 18.7401H37.712L39.8227 16.6294ZM27.0747 14.1634V8.16558L35.0997 0.140625V8.04019H42.9993L34.9743 16.0651H28.9765L24.3162 20.7255C24.3719 20.9345 24.3998 21.1643 24.3998 21.4151C24.3998 21.7913 24.3301 22.1396 24.1908 22.46C24.0515 22.7805 23.8634 23.0591 23.6265 23.296C23.3897 23.5328 23.1041 23.7279 22.7697 23.8811C22.4353 24.0344 22.087 24.104 21.7248 24.0901C21.3486 24.0901 21.0003 24.0204 20.6799 23.8811C20.3594 23.7418 20.0808 23.5537 19.8439 23.3169C19.6071 23.08 19.412 22.7944 19.2588 22.46C19.1055 22.1257 19.0359 21.7774 19.0498 21.4151C19.0498 21.0389 19.1195 20.6906 19.2588 20.3702C19.3981 20.0498 19.5862 19.7711 19.823 19.5343C20.0599 19.2974 20.3455 19.1024 20.6799 18.9491C21.0142 18.7959 21.3625 18.7262 21.7248 18.7401C21.9756 18.7401 22.2054 18.768 22.4144 18.8237L27.0747 14.1634ZM29.7497 13.3902H33.8667L36.5417 10.7152H32.4247V6.59821L29.7497 9.27319V13.3902Z" fill="black"/>
</svg>
