<svg width="48" height="48" viewBox="0 0 48 48" fill="none" xmlns="http://www.w3.org/2000/svg">
    <path d="M24.0002 7.78644C24.0002 8.8517 23.6351 9.74866 22.9047 10.4773C22.176 11.2077 21.2791 11.5729 20.2138 11.5729C19.6988 11.5729 19.2184 11.4753 18.7724 11.2801C18.3265 11.0832 17.9201 10.8005 17.5532 10.4319C16.3499 10.7685 15.3217 11.3785 14.4685 12.262C13.6153 13.1455 13.0599 14.178 12.8025 15.3593H44.0002L41.8167 29.243H31.6312V26.7187H39.6458C39.8882 25.263 40.1238 23.7905 40.3526 22.3011C40.5815 20.8118 40.8171 19.3393 41.0594 17.8836H6.94105C7.18506 19.3393 7.42066 20.8118 7.64785 22.3011C7.87504 23.7905 8.11064 25.263 8.35465 26.7187H16.3693V29.243H6.18376L4.00024 15.3593H10.2605C10.5213 13.6529 11.2029 12.1526 12.3052 10.8585C13.4075 9.56439 14.7975 8.66406 16.4753 8.15752C16.4433 8.08852 16.4274 8.0069 16.4274 7.91266V7.67033C16.456 6.62527 16.8329 5.75186 17.5582 5.05011C18.2819 4.35004 19.1671 4 20.2138 4C21.2791 4 22.176 4.36518 22.9047 5.09554C23.6351 5.82422 24.0002 6.72119 24.0002 7.78644ZM18.4316 40.6023H29.5688L30.8739 27.1554C30.9395 26.701 30.81 26.3047 30.4852 25.9664C30.1621 25.6265 29.7742 25.4565 29.3215 25.4565H18.679C18.2263 25.4565 17.8384 25.6265 17.5153 25.9664C17.1922 26.3064 17.0626 26.7027 17.1266 27.1554L18.4316 40.6023ZM16.185 43.1266L14.6805 27.4179C14.5762 26.2365 14.9237 25.1931 15.7231 24.2878C16.5224 23.3824 17.5128 22.9305 18.6942 22.9322H29.3063C30.4877 22.9322 31.4781 23.3849 32.2774 24.2903C33.0768 25.1957 33.4243 26.2382 33.3199 27.4179L31.8155 43.1266H16.185Z" fill="black"/>
</svg>
