<svg width="48" height="48" viewBox="0 0 48 48" fill="none" xmlns="http://www.w3.org/2000/svg">
<path d="M33.5999 6.5998C33.5999 6.12242 33.7896 5.66458 34.1271 5.32701C34.4647 4.98945 34.9225 4.7998 35.3999 4.7998H41.3999C41.8773 4.7998 42.3352 4.98945 42.6727 5.32701C43.0103 5.66458 43.1999 6.12242 43.1999 6.5998V12.5998C43.1999 13.0772 43.0103 13.535 42.6727 13.8726C42.3352 14.2102 41.8773 14.3998 41.3999 14.3998C40.9225 14.3998 40.4647 14.2102 40.1271 13.8726C39.7896 13.535 39.5999 13.0772 39.5999 12.5998V10.9438L28.8719 21.6718C28.5344 22.0089 28.0769 22.1982 27.5999 22.1982C27.1229 22.1982 26.6654 22.0089 26.3279 21.6718L20.3999 15.7438L10.2719 25.8718C10.1071 26.0487 9.90842 26.1905 9.68762 26.2889C9.46682 26.3873 9.22847 26.4402 8.98678 26.4444C8.7451 26.4487 8.50503 26.4042 8.2809 26.3137C8.05676 26.2232 7.85316 26.0884 7.68224 25.9175C7.51131 25.7466 7.37657 25.543 7.28603 25.3188C7.1955 25.0947 7.15105 24.8546 7.15531 24.613C7.15957 24.3713 7.21247 24.1329 7.31086 23.9121C7.40924 23.6913 7.55108 23.4926 7.72793 23.3278L19.1279 11.9278C19.4654 11.5907 19.9229 11.4014 20.3999 11.4014C20.8769 11.4014 21.3344 11.5907 21.6719 11.9278L27.5999 17.8558L37.0559 8.3998H35.3999C34.9225 8.3998 34.4647 8.21016 34.1271 7.8726C33.7896 7.53503 33.5999 7.07719 33.5999 6.5998ZM8.99993 33.5998C9.47732 33.5998 9.93516 33.7894 10.2727 34.127C10.6103 34.4646 10.7999 34.9224 10.7999 35.3998V41.3998C10.7999 41.8772 10.6103 42.335 10.2727 42.6726C9.93516 43.0102 9.47732 43.1998 8.99993 43.1998C8.52254 43.1998 8.0647 43.0102 7.72714 42.6726C7.38957 42.335 7.19993 41.8772 7.19993 41.3998V35.3998C7.19993 34.9224 7.38957 34.4646 7.72714 34.127C8.0647 33.7894 8.52254 33.5998 8.99993 33.5998ZM20.3999 28.1998C20.3999 27.7224 20.2103 27.2646 19.8727 26.927C19.5352 26.5894 19.0773 26.3998 18.5999 26.3998C18.1225 26.3998 17.6647 26.5894 17.3271 26.927C16.9896 27.2646 16.7999 27.7224 16.7999 28.1998V41.3998C16.7999 41.8772 16.9896 42.335 17.3271 42.6726C17.6647 43.0102 18.1225 43.1998 18.5999 43.1998C19.0773 43.1998 19.5352 43.0102 19.8727 42.6726C20.2103 42.335 20.3999 41.8772 20.3999 41.3998V28.1998ZM28.1999 31.1998C28.6773 31.1998 29.1352 31.3894 29.4727 31.727C29.8103 32.0646 29.9999 32.5224 29.9999 32.9998V41.3998C29.9999 41.8772 29.8103 42.335 29.4727 42.6726C29.1352 43.0102 28.6773 43.1998 28.1999 43.1998C27.7225 43.1998 27.2647 43.0102 26.9271 42.6726C26.5896 42.335 26.3999 41.8772 26.3999 41.3998V32.9998C26.3999 32.5224 26.5896 32.0646 26.9271 31.727C27.2647 31.3894 27.7225 31.1998 28.1999 31.1998ZM39.5999 23.3998C39.5999 22.9224 39.4103 22.4646 39.0727 22.127C38.7352 21.7894 38.2773 21.5998 37.7999 21.5998C37.3225 21.5998 36.8647 21.7894 36.5271 22.127C36.1896 22.4646 35.9999 22.9224 35.9999 23.3998V41.3998C35.9999 41.8772 36.1896 42.335 36.5271 42.6726C36.8647 43.0102 37.3225 43.1998 37.7999 43.1998C38.2773 43.1998 38.7352 43.0102 39.0727 42.6726C39.4103 42.335 39.5999 41.8772 39.5999 41.3998V23.3998Z" fill="#62547D"/>
<path d="M33.5999 6.5998C33.5999 6.12242 33.7896 5.66458 34.1271 5.32701C34.4647 4.98945 34.9225 4.7998 35.3999 4.7998H41.3999C41.8773 4.7998 42.3352 4.98945 42.6727 5.32701C43.0103 5.66458 43.1999 6.12242 43.1999 6.5998V12.5998C43.1999 13.0772 43.0103 13.535 42.6727 13.8726C42.3352 14.2102 41.8773 14.3998 41.3999 14.3998C40.9225 14.3998 40.4647 14.2102 40.1271 13.8726C39.7896 13.535 39.5999 13.0772 39.5999 12.5998V10.9438L28.8719 21.6718C28.5344 22.0089 28.0769 22.1982 27.5999 22.1982C27.1229 22.1982 26.6654 22.0089 26.3279 21.6718L20.3999 15.7438L10.2719 25.8718C10.1071 26.0487 9.90842 26.1905 9.68762 26.2889C9.46682 26.3873 9.22847 26.4402 8.98678 26.4444C8.7451 26.4487 8.50503 26.4042 8.2809 26.3137C8.05676 26.2232 7.85316 26.0884 7.68224 25.9175C7.51131 25.7466 7.37657 25.543 7.28603 25.3188C7.1955 25.0947 7.15105 24.8546 7.15531 24.613C7.15957 24.3713 7.21247 24.1329 7.31086 23.9121C7.40924 23.6913 7.55108 23.4926 7.72793 23.3278L19.1279 11.9278C19.4654 11.5907 19.9229 11.4014 20.3999 11.4014C20.8769 11.4014 21.3344 11.5907 21.6719 11.9278L27.5999 17.8558L37.0559 8.3998H35.3999C34.9225 8.3998 34.4647 8.21016 34.1271 7.8726C33.7896 7.53503 33.5999 7.07719 33.5999 6.5998ZM8.99993 33.5998C9.47732 33.5998 9.93516 33.7894 10.2727 34.127C10.6103 34.4646 10.7999 34.9224 10.7999 35.3998V41.3998C10.7999 41.8772 10.6103 42.335 10.2727 42.6726C9.93516 43.0102 9.47732 43.1998 8.99993 43.1998C8.52254 43.1998 8.0647 43.0102 7.72714 42.6726C7.38957 42.335 7.19993 41.8772 7.19993 41.3998V35.3998C7.19993 34.9224 7.38957 34.4646 7.72714 34.127C8.0647 33.7894 8.52254 33.5998 8.99993 33.5998ZM20.3999 28.1998C20.3999 27.7224 20.2103 27.2646 19.8727 26.927C19.5352 26.5894 19.0773 26.3998 18.5999 26.3998C18.1225 26.3998 17.6647 26.5894 17.3271 26.927C16.9896 27.2646 16.7999 27.7224 16.7999 28.1998V41.3998C16.7999 41.8772 16.9896 42.335 17.3271 42.6726C17.6647 43.0102 18.1225 43.1998 18.5999 43.1998C19.0773 43.1998 19.5352 43.0102 19.8727 42.6726C20.2103 42.335 20.3999 41.8772 20.3999 41.3998V28.1998ZM28.1999 31.1998C28.6773 31.1998 29.1352 31.3894 29.4727 31.727C29.8103 32.0646 29.9999 32.5224 29.9999 32.9998V41.3998C29.9999 41.8772 29.8103 42.335 29.4727 42.6726C29.1352 43.0102 28.6773 43.1998 28.1999 43.1998C27.7225 43.1998 27.2647 43.0102 26.9271 42.6726C26.5896 42.335 26.3999 41.8772 26.3999 41.3998V32.9998C26.3999 32.5224 26.5896 32.0646 26.9271 31.727C27.2647 31.3894 27.7225 31.1998 28.1999 31.1998ZM39.5999 23.3998C39.5999 22.9224 39.4103 22.4646 39.0727 22.127C38.7352 21.7894 38.2773 21.5998 37.7999 21.5998C37.3225 21.5998 36.8647 21.7894 36.5271 22.127C36.1896 22.4646 35.9999 22.9224 35.9999 23.3998V41.3998C35.9999 41.8772 36.1896 42.335 36.5271 42.6726C36.8647 43.0102 37.3225 43.1998 37.7999 43.1998C38.2773 43.1998 38.7352 43.0102 39.0727 42.6726C39.4103 42.335 39.5999 41.8772 39.5999 41.3998V23.3998Z" fill="black" fill-opacity="0.8"/>
</svg>
