<svg width="48" height="48" viewBox="0 0 48 48" fill="none" xmlns="http://www.w3.org/2000/svg">
<g clip-path="url(#clip0_90_866)">
<path d="M24.0001 4.68701L46.2858 14.3453L24.0001 24.0002L1.71436 14.3453L24.0001 4.68701Z" stroke="#62547D" stroke-width="4" stroke-linecap="round" stroke-linejoin="round"/>
<path d="M24.0001 4.68701L46.2858 14.3453L24.0001 24.0002L1.71436 14.3453L24.0001 4.68701Z" stroke="black" stroke-opacity="0.8" stroke-width="4" stroke-linecap="round" stroke-linejoin="round"/>
<path d="M11.8286 18.7512L11.8492 29.2563C11.8492 29.2563 15.5281 34.1249 24.0001 34.1249C32.4686 34.1249 36.1715 29.2563 36.1715 29.2563L36.1681 18.7512M5.8115 36.3466V16.1523M5.8115 36.3466C6.89904 36.3466 7.94546 36.7787 8.71447 37.5477C9.48348 38.3167 9.9155 39.3597 9.9155 40.4472C9.9155 41.5347 9.48348 42.5777 8.71447 43.3467C7.94546 44.1157 6.90247 44.5478 5.81493 44.5478C4.72739 44.5478 3.68439 44.1157 2.91539 43.3467C2.14638 42.5777 1.71436 41.5347 1.71436 40.4472C1.71436 39.3597 2.14638 38.3167 2.91539 37.5477C3.68439 36.7787 4.72396 36.3466 5.8115 36.3466Z" stroke="#62547D" stroke-width="4" stroke-linecap="round" stroke-linejoin="round"/>
<path d="M11.8286 18.7512L11.8492 29.2563C11.8492 29.2563 15.5281 34.1249 24.0001 34.1249C32.4686 34.1249 36.1715 29.2563 36.1715 29.2563L36.1681 18.7512M5.8115 36.3466V16.1523M5.8115 36.3466C6.89904 36.3466 7.94546 36.7787 8.71447 37.5477C9.48348 38.3167 9.9155 39.3597 9.9155 40.4472C9.9155 41.5347 9.48348 42.5777 8.71447 43.3467C7.94546 44.1157 6.90247 44.5478 5.81493 44.5478C4.72739 44.5478 3.68439 44.1157 2.91539 43.3467C2.14638 42.5777 1.71436 41.5347 1.71436 40.4472C1.71436 39.3597 2.14638 38.3167 2.91539 37.5477C3.68439 36.7787 4.72396 36.3466 5.8115 36.3466Z" stroke="black" stroke-opacity="0.8" stroke-width="4" stroke-linecap="round" stroke-linejoin="round"/>
</g>
<defs>
<clipPath id="clip0_90_866">
<rect width="48" height="48" fill="white"/>
</clipPath>
</defs>
</svg>
