<svg width="48" height="48" viewBox="0 0 48 48" fill="none" xmlns="http://www.w3.org/2000/svg">
<path d="M43.5 42H39V6H40.5C40.8978 6 41.2794 5.84196 41.5607 5.56066C41.842 5.27936 42 4.89782 42 4.5C42 4.10218 41.842 3.72064 41.5607 3.43934C41.2794 3.15804 40.8978 3 40.5 3H7.5C7.10218 3 6.72064 3.15804 6.43934 3.43934C6.15804 3.72064 6 4.10218 6 4.5C6 4.89782 6.15804 5.27936 6.43934 5.56066C6.72064 5.84196 7.10218 6 7.5 6H9V42H4.5C4.10218 42 3.72064 42.158 3.43934 42.4393C3.15804 42.7206 3 43.1022 3 43.5C3 43.8978 3.15804 44.2794 3.43934 44.5607C3.72064 44.842 4.10218 45 4.5 45H43.5C43.8978 45 44.2794 44.842 44.5607 44.5607C44.842 44.2794 45 43.8978 45 43.5C45 43.1022 44.842 42.7206 44.5607 42.4393C44.2794 42.158 43.8978 42 43.5 42ZM12 6H36V42H30V34.5C30 34.1022 29.842 33.7206 29.5607 33.4393C29.2794 33.158 28.8978 33 28.5 33H19.5C19.1022 33 18.7206 33.158 18.4393 33.4393C18.158 33.7206 18 34.1022 18 34.5V42H12V6ZM27 42H21V36H27V42ZM16.5 12C16.5 11.6022 16.658 11.2206 16.9393 10.9393C17.2206 10.658 17.6022 10.5 18 10.5H21C21.3978 10.5 21.7794 10.658 22.0607 10.9393C22.342 11.2206 22.5 11.6022 22.5 12C22.5 12.3978 22.342 12.7794 22.0607 13.0607C21.7794 13.342 21.3978 13.5 21 13.5H18C17.6022 13.5 17.2206 13.342 16.9393 13.0607C16.658 12.7794 16.5 12.3978 16.5 12ZM25.5 12C25.5 11.6022 25.658 11.2206 25.9393 10.9393C26.2206 10.658 26.6022 10.5 27 10.5H30C30.3978 10.5 30.7794 10.658 31.0607 10.9393C31.342 11.2206 31.5 11.6022 31.5 12C31.5 12.3978 31.342 12.7794 31.0607 13.0607C30.7794 13.342 30.3978 13.5 30 13.5H27C26.6022 13.5 26.2206 13.342 25.9393 13.0607C25.658 12.7794 25.5 12.3978 25.5 12ZM16.5 19.5C16.5 19.1022 16.658 18.7206 16.9393 18.4393C17.2206 18.158 17.6022 18 18 18H21C21.3978 18 21.7794 18.158 22.0607 18.4393C22.342 18.7206 22.5 19.1022 22.5 19.5C22.5 19.8978 22.342 20.2794 22.0607 20.5607C21.7794 20.842 21.3978 21 21 21H18C17.6022 21 17.2206 20.842 16.9393 20.5607C16.658 20.2794 16.5 19.8978 16.5 19.5ZM25.5 19.5C25.5 19.1022 25.658 18.7206 25.9393 18.4393C26.2206 18.158 26.6022 18 27 18H30C30.3978 18 30.7794 18.158 31.0607 18.4393C31.342 18.7206 31.5 19.1022 31.5 19.5C31.5 19.8978 31.342 20.2794 31.0607 20.5607C30.7794 20.842 30.3978 21 30 21H27C26.6022 21 26.2206 20.842 25.9393 20.5607C25.658 20.2794 25.5 19.8978 25.5 19.5ZM16.5 27C16.5 26.6022 16.658 26.2206 16.9393 25.9393C17.2206 25.658 17.6022 25.5 18 25.5H21C21.3978 25.5 21.7794 25.658 22.0607 25.9393C22.342 26.2206 22.5 26.6022 22.5 27C22.5 27.3978 22.342 27.7794 22.0607 28.0607C21.7794 28.342 21.3978 28.5 21 28.5H18C17.6022 28.5 17.2206 28.342 16.9393 28.0607C16.658 27.7794 16.5 27.3978 16.5 27ZM25.5 27C25.5 26.6022 25.658 26.2206 25.9393 25.9393C26.2206 25.658 26.6022 25.5 27 25.5H30C30.3978 25.5 30.7794 25.658 31.0607 25.9393C31.342 26.2206 31.5 26.6022 31.5 27C31.5 27.3978 31.342 27.7794 31.0607 28.0607C30.7794 28.342 30.3978 28.5 30 28.5H27C26.6022 28.5 26.2206 28.342 25.9393 28.0607C25.658 27.7794 25.5 27.3978 25.5 27Z" fill="#62547D"/>
<path d="M43.5 42H39V6H40.5C40.8978 6 41.2794 5.84196 41.5607 5.56066C41.842 5.27936 42 4.89782 42 4.5C42 4.10218 41.842 3.72064 41.5607 3.43934C41.2794 3.15804 40.8978 3 40.5 3H7.5C7.10218 3 6.72064 3.15804 6.43934 3.43934C6.15804 3.72064 6 4.10218 6 4.5C6 4.89782 6.15804 5.27936 6.43934 5.56066C6.72064 5.84196 7.10218 6 7.5 6H9V42H4.5C4.10218 42 3.72064 42.158 3.43934 42.4393C3.15804 42.7206 3 43.1022 3 43.5C3 43.8978 3.15804 44.2794 3.43934 44.5607C3.72064 44.842 4.10218 45 4.5 45H43.5C43.8978 45 44.2794 44.842 44.5607 44.5607C44.842 44.2794 45 43.8978 45 43.5C45 43.1022 44.842 42.7206 44.5607 42.4393C44.2794 42.158 43.8978 42 43.5 42ZM12 6H36V42H30V34.5C30 34.1022 29.842 33.7206 29.5607 33.4393C29.2794 33.158 28.8978 33 28.5 33H19.5C19.1022 33 18.7206 33.158 18.4393 33.4393C18.158 33.7206 18 34.1022 18 34.5V42H12V6ZM27 42H21V36H27V42ZM16.5 12C16.5 11.6022 16.658 11.2206 16.9393 10.9393C17.2206 10.658 17.6022 10.5 18 10.5H21C21.3978 10.5 21.7794 10.658 22.0607 10.9393C22.342 11.2206 22.5 11.6022 22.5 12C22.5 12.3978 22.342 12.7794 22.0607 13.0607C21.7794 13.342 21.3978 13.5 21 13.5H18C17.6022 13.5 17.2206 13.342 16.9393 13.0607C16.658 12.7794 16.5 12.3978 16.5 12ZM25.5 12C25.5 11.6022 25.658 11.2206 25.9393 10.9393C26.2206 10.658 26.6022 10.5 27 10.5H30C30.3978 10.5 30.7794 10.658 31.0607 10.9393C31.342 11.2206 31.5 11.6022 31.5 12C31.5 12.3978 31.342 12.7794 31.0607 13.0607C30.7794 13.342 30.3978 13.5 30 13.5H27C26.6022 13.5 26.2206 13.342 25.9393 13.0607C25.658 12.7794 25.5 12.3978 25.5 12ZM16.5 19.5C16.5 19.1022 16.658 18.7206 16.9393 18.4393C17.2206 18.158 17.6022 18 18 18H21C21.3978 18 21.7794 18.158 22.0607 18.4393C22.342 18.7206 22.5 19.1022 22.5 19.5C22.5 19.8978 22.342 20.2794 22.0607 20.5607C21.7794 20.842 21.3978 21 21 21H18C17.6022 21 17.2206 20.842 16.9393 20.5607C16.658 20.2794 16.5 19.8978 16.5 19.5ZM25.5 19.5C25.5 19.1022 25.658 18.7206 25.9393 18.4393C26.2206 18.158 26.6022 18 27 18H30C30.3978 18 30.7794 18.158 31.0607 18.4393C31.342 18.7206 31.5 19.1022 31.5 19.5C31.5 19.8978 31.342 20.2794 31.0607 20.5607C30.7794 20.842 30.3978 21 30 21H27C26.6022 21 26.2206 20.842 25.9393 20.5607C25.658 20.2794 25.5 19.8978 25.5 19.5ZM16.5 27C16.5 26.6022 16.658 26.2206 16.9393 25.9393C17.2206 25.658 17.6022 25.5 18 25.5H21C21.3978 25.5 21.7794 25.658 22.0607 25.9393C22.342 26.2206 22.5 26.6022 22.5 27C22.5 27.3978 22.342 27.7794 22.0607 28.0607C21.7794 28.342 21.3978 28.5 21 28.5H18C17.6022 28.5 17.2206 28.342 16.9393 28.0607C16.658 27.7794 16.5 27.3978 16.5 27ZM25.5 27C25.5 26.6022 25.658 26.2206 25.9393 25.9393C26.2206 25.658 26.6022 25.5 27 25.5H30C30.3978 25.5 30.7794 25.658 31.0607 25.9393C31.342 26.2206 31.5 26.6022 31.5 27C31.5 27.3978 31.342 27.7794 31.0607 28.0607C30.7794 28.342 30.3978 28.5 30 28.5H27C26.6022 28.5 26.2206 28.342 25.9393 28.0607C25.658 27.7794 25.5 27.3978 25.5 27Z" fill="black" fill-opacity="0.8"/>
</svg>
