<svg width="48" height="48" viewBox="0 0 48 48" fill="none" xmlns="http://www.w3.org/2000/svg">
<path d="M30.364 30.364C29.5283 31.1997 28.5361 31.8627 27.4442 32.315C26.3522 32.7673 25.1819 33.0001 24 33.0001C22.8181 33.0001 21.6478 32.7673 20.5558 32.315C19.4639 31.8627 18.4717 31.1997 17.636 30.364M42 24C42 26.3638 41.5344 28.7044 40.6298 30.8883C39.7252 33.0722 38.3994 35.0565 36.7279 36.7279C35.0565 38.3994 33.0722 39.7252 30.8883 40.6298C28.7044 41.5344 26.3638 42 24 42C21.6362 42 19.2956 41.5344 17.1117 40.6298C14.9278 39.7252 12.9435 38.3994 11.2721 36.7279C9.60062 35.0565 8.27475 33.0722 7.37017 30.8883C6.46558 28.7044 6 26.3638 6 24C6 19.2261 7.89642 14.6477 11.2721 11.2721C14.6477 7.89642 19.2261 6 24 6C28.7739 6 33.3523 7.89642 36.7279 11.2721C40.1036 14.6477 42 19.2261 42 24ZM19.5 19.5C19.5 20.328 19.164 21 18.75 21C18.336 21 18 20.328 18 19.5C18 18.672 18.336 18 18.75 18C19.164 18 19.5 18.672 19.5 19.5ZM18.75 19.5H18.766V19.53H18.75V19.5ZM30 19.5C30 20.328 29.664 21 29.25 21C28.836 21 28.5 20.328 28.5 19.5C28.5 18.672 28.836 18 29.25 18C29.664 18 30 18.672 30 19.5ZM29.25 19.5H29.266V19.53H29.25V19.5Z" stroke="#62547D" stroke-width="4" stroke-linecap="round" stroke-linejoin="round"/>
<path d="M30.364 30.364C29.5283 31.1997 28.5361 31.8627 27.4442 32.315C26.3522 32.7673 25.1819 33.0001 24 33.0001C22.8181 33.0001 21.6478 32.7673 20.5558 32.315C19.4639 31.8627 18.4717 31.1997 17.636 30.364M42 24C42 26.3638 41.5344 28.7044 40.6298 30.8883C39.7252 33.0722 38.3994 35.0565 36.7279 36.7279C35.0565 38.3994 33.0722 39.7252 30.8883 40.6298C28.7044 41.5344 26.3638 42 24 42C21.6362 42 19.2956 41.5344 17.1117 40.6298C14.9278 39.7252 12.9435 38.3994 11.2721 36.7279C9.60062 35.0565 8.27475 33.0722 7.37017 30.8883C6.46558 28.7044 6 26.3638 6 24C6 19.2261 7.89642 14.6477 11.2721 11.2721C14.6477 7.89642 19.2261 6 24 6C28.7739 6 33.3523 7.89642 36.7279 11.2721C40.1036 14.6477 42 19.2261 42 24ZM19.5 19.5C19.5 20.328 19.164 21 18.75 21C18.336 21 18 20.328 18 19.5C18 18.672 18.336 18 18.75 18C19.164 18 19.5 18.672 19.5 19.5ZM18.75 19.5H18.766V19.53H18.75V19.5ZM30 19.5C30 20.328 29.664 21 29.25 21C28.836 21 28.5 20.328 28.5 19.5C28.5 18.672 28.836 18 29.25 18C29.664 18 30 18.672 30 19.5ZM29.25 19.5H29.266V19.53H29.25V19.5Z" stroke="black" stroke-opacity="0.8" stroke-width="4" stroke-linecap="round" stroke-linejoin="round"/>
</svg>
