<svg width="48" height="48" viewBox="0 0 48 48" fill="none" xmlns="http://www.w3.org/2000/svg">
<path d="M38.871 15.6978C38.773 16.3416 38.989 16.9935 39.4489 17.4534L42.5843 20.5888C43.5241 21.5286 43.996 22.7623 43.996 23.9961C43.996 25.2299 43.5261 26.4616 42.5843 27.4034L39.3629 30.6248C39.1464 30.8411 38.8822 31.0036 38.5916 31.0995C38.301 31.1953 37.9919 31.2217 37.6892 31.1767C36.7494 31.0367 36.0856 30.2169 35.7536 29.327C35.4624 28.5408 34.9781 27.8403 34.3453 27.2902C33.7126 26.74 32.9517 26.3578 32.1326 26.1786C31.3134 25.9995 30.4624 26.0291 29.6578 26.2649C28.8531 26.5007 28.1207 26.935 27.5278 27.5279C26.9349 28.1208 26.5006 28.8532 26.2648 29.6579C26.029 30.4625 25.9993 31.3136 26.1785 32.1327C26.3577 32.9518 26.7399 33.7127 27.29 34.3455C27.8402 34.9782 28.5406 35.4625 29.3269 35.7537C30.2187 36.0857 31.0366 36.7475 31.1765 37.6894C31.2216 37.992 31.1952 38.3011 31.0993 38.5917C31.0035 38.8824 30.8409 39.1465 30.6246 39.363L27.4053 42.5824C26.9584 43.0314 26.4271 43.3875 25.842 43.6301C25.2568 43.8727 24.6294 43.9971 23.996 43.9961C23.363 43.9971 22.7361 43.8729 22.1513 43.6306C21.5665 43.3883 21.0354 43.0328 20.5887 42.5844L17.4533 39.449C17.2263 39.2225 16.9496 39.0521 16.6451 38.9515C16.3407 38.8508 16.0169 38.8226 15.6996 38.8691C14.7138 39.0171 14.02 39.8769 13.66 40.8047C13.3584 41.5791 12.8684 42.266 12.2344 42.8034C11.6005 43.3407 10.8425 43.7116 10.0292 43.8823C9.2159 44.0531 8.37284 44.0184 7.5763 43.7814C6.77976 43.5443 6.05488 43.1125 5.46724 42.5248C4.87959 41.9372 4.44772 41.2123 4.2107 40.4158C3.97367 39.6192 3.93897 38.7762 4.10973 37.9629C4.28049 37.1495 4.65132 36.3916 5.18868 35.7577C5.72604 35.1237 6.41298 34.6337 7.18734 34.332C8.11515 33.9721 8.97498 33.2782 9.12095 32.2924C9.16774 31.9753 9.13986 31.6517 9.03954 31.3472C8.93921 31.0428 8.76921 30.766 8.54307 30.5388L5.4077 27.4034C4.9593 26.9566 4.60373 26.4256 4.36144 25.8408C4.11916 25.256 3.99495 24.6291 3.99598 23.9961C3.99598 22.7623 4.46788 21.5286 5.4077 20.5888L8.45908 17.5374C8.93899 17.0575 9.62085 16.8315 10.2927 16.9315C11.3225 17.0855 12.0464 17.9873 12.4383 18.9511C12.7496 19.7145 13.2449 20.3889 13.88 20.9145C14.5152 21.4401 15.2704 21.8005 16.0785 21.9635C16.8866 22.1265 17.7225 22.0872 18.5117 21.8489C19.3009 21.6107 20.019 21.181 20.6019 20.598C21.1849 20.0151 21.6146 19.2971 21.8528 18.5078C22.091 17.7186 22.1304 16.8827 21.9674 16.0746C21.8043 15.2665 21.444 14.5113 20.9184 13.8762C20.3928 13.241 19.7183 12.7457 18.955 12.4344C17.9912 12.0425 17.0894 11.3186 16.9354 10.2888C16.8354 9.61698 17.0594 8.93711 17.5413 8.45521L20.5907 5.40582C21.0374 4.95803 21.5682 4.60296 22.1526 4.36103C22.737 4.11909 23.3635 3.99508 23.996 3.9961C25.2297 3.9961 26.4635 4.46801 27.4033 5.40782L30.5387 8.54319C30.9986 9.0031 31.6504 9.21905 32.2923 9.12307C33.2781 8.9751 33.972 8.11528 34.3319 7.18746C34.6336 6.4131 35.1236 5.72617 35.7575 5.18881C36.3915 4.65144 37.1494 4.28061 37.9627 4.10985C38.776 3.93909 39.6191 3.9738 40.4156 4.21082C41.2122 4.44785 41.9371 4.87972 42.5247 5.46736C43.1124 6.05501 43.5442 6.77988 43.7812 7.57642C44.0183 8.37296 44.053 9.21602 43.8822 10.0293C43.7115 10.8427 43.3406 11.6006 42.8033 12.2345C42.2659 12.8685 41.579 13.3585 40.8046 13.6602C39.8768 14.0201 39.017 14.712 38.871 15.6978Z" stroke="black" stroke-width="3" stroke-linecap="round" stroke-linejoin="round"/>
</svg>
