<svg width="32" height="32" viewBox="0 0 32 32" fill="none" xmlns="http://www.w3.org/2000/svg">
<rect width="32" height="32" rx="2" fill="white"/>
<path fill-rule="evenodd" clip-rule="evenodd" d="M22.6667 6.66602V5.33268C22.6667 4.62544 22.3857 3.94716 21.8856 3.44706C21.3855 2.94697 20.7072 2.66602 20 2.66602H12C11.2928 2.66602 10.6145 2.94697 10.1144 3.44706C9.61428 3.94716 9.33333 4.62544 9.33333 5.33268V6.66602H5.33333C4.97971 6.66602 4.64057 6.80649 4.39052 7.05654C4.14048 7.30659 4 7.64573 4 7.99935C4 8.35297 4.14048 8.69211 4.39052 8.94216C4.64057 9.19221 4.97971 9.33268 5.33333 9.33268H6.66667V23.9993C6.66667 25.0602 7.08809 26.0776 7.83824 26.8278C8.58839 27.5779 9.6058 27.9993 10.6667 27.9993H21.3333C22.3942 27.9993 23.4116 27.5779 24.1618 26.8278C24.9119 26.0776 25.3333 25.0602 25.3333 23.9993V9.33268H26.6667C27.0203 9.33268 27.3594 9.19221 27.6095 8.94216C27.8595 8.69211 28 8.35297 28 7.99935C28 7.64573 27.8595 7.30659 27.6095 7.05654C27.3594 6.80649 27.0203 6.66602 26.6667 6.66602H22.6667ZM20 5.33268H12V6.66602H20V5.33268ZM22.6667 9.33268H9.33333V23.9993C9.33333 24.353 9.47381 24.6921 9.72386 24.9422C9.97391 25.1922 10.313 25.3327 10.6667 25.3327H21.3333C21.687 25.3327 22.0261 25.1922 22.2761 24.9422C22.5262 24.6921 22.6667 24.353 22.6667 23.9993V9.33268Z" fill="black"/>
<path d="M12 12H14.6667V22.6667H12V12ZM17.3333 12H20V22.6667H17.3333V12Z" fill="black"/>
</svg>
